<svg width="25" height="24" viewBox="0 0 25 24" fill="none" xmlns="http://www.w3.org/2000/svg">
<g id="Icons/front_hand_24px">
<path id="Vector" d="M12.825 11.75V1.75C12.825 1.53333 12.8973 1.35417 13.0419 1.2125C13.1865 1.07083 13.3656 1 13.5794 1C13.7931 1 13.9708 1.07187 14.1125 1.21563C14.2542 1.35938 14.325 1.5375 14.325 1.75V11.75H12.825ZM8.65 11.75V2.75C8.65 2.53333 8.72229 2.35417 8.86687 2.2125C9.01147 2.07083 9.19064 2 9.40437 2C9.61812 2 9.79583 2.07187 9.9375 2.21563C10.0792 2.35938 10.15 2.5375 10.15 2.75V11.75H8.65ZM12.8766 23C10.5443 23 8.56508 22.1917 6.93905 20.575C5.31302 18.9583 4.5 16.9833 4.5 14.65V4.75C4.5 4.5375 4.57229 4.35938 4.71688 4.21563C4.86148 4.07188 5.04064 4 5.25438 4C5.46813 4 5.64583 4.07188 5.7875 4.21563C5.92917 4.35938 6 4.5375 6 4.75V14.65C6 16.5645 6.66497 18.1848 7.99493 19.5109C9.32487 20.837 10.9499 21.5 12.8699 21.5C14.79 21.5 16.425 20.8292 17.775 19.4875C19.125 18.1458 19.8667 16.5167 20 14.6V10.75H19.75C19.3958 10.75 19.099 10.8698 18.8594 11.1094C18.6198 11.349 18.5 11.6458 18.5 12V15.75H15.75C15.1167 15.75 14.5833 15.9667 14.15 16.4C13.7167 16.8333 13.5 17.3667 13.5 18V18.75H12V18C12 16.95 12.3625 16.0625 13.0875 15.3375C13.8125 14.6125 14.7 14.25 15.75 14.25H17V3.75C17 3.5375 17.0723 3.35938 17.2169 3.21563C17.3615 3.07188 17.5406 3 17.7544 3C17.9681 3 18.1458 3.07188 18.2875 3.21563C18.4292 3.35938 18.5 3.5375 18.5 3.75V9.55C18.6833 9.45 18.8833 9.375 19.1 9.325C19.3167 9.275 19.5333 9.25 19.75 9.25H21.5V14.6C21.3667 16.95 20.4792 18.9375 18.8375 20.5625C17.1958 22.1875 15.2089 23 12.8766 23Z" fill="#434343"/>
</g>
</svg>
