<svg width="200" height="141" viewBox="0 0 200 141" fill="none" xmlns="http://www.w3.org/2000/svg">
<g id="Group 26795">
<path id="Rectangle 5622" d="M162 0.5H42C36.4772 0.5 32 4.97715 32 10.5V130.5C32 136.023 36.4772 140.5 42 140.5H162C167.523 140.5 172 136.023 172 130.5V10.5C172 4.97715 167.523 0.5 162 0.5Z" fill="#D6F3F7"/>
<g id="Group 26784">
<g id="Group" filter="url(#filter0_d_1866_14003)">
<path id="Rectangle 5623" d="M146 10.5H11C8.23858 10.5 6 12.7386 6 15.5V40.5C6 43.2614 8.23858 45.5 11 45.5H146C148.761 45.5 151 43.2614 151 40.5V15.5C151 12.7386 148.761 10.5 146 10.5Z" fill="white"/>
</g>
<g id="Group 26775">
<path id="Rectangle 5617" d="M75 18.5H49C47.3431 18.5 46 19.8431 46 21.5C46 23.1569 47.3431 24.5 49 24.5H75C76.6569 24.5 78 23.1569 78 21.5C78 19.8431 76.6569 18.5 75 18.5Z" fill="#9FE0EA"/>
<path id="Rectangle 5618" d="M93 31.5H49C47.3431 31.5 46 32.8431 46 34.5C46 36.1569 47.3431 37.5 49 37.5H93C94.6569 37.5 96 36.1569 96 34.5C96 32.8431 94.6569 31.5 93 31.5Z" fill="#D6F3F7"/>
</g>
</g>
<g id="Group 26790">
<path id="Rectangle 5624" d="M33 13.5H14C11.2386 13.5 9 15.7386 9 18.5V37.5C9 40.2614 11.2386 42.5 14 42.5H33C35.7614 42.5 38 40.2614 38 37.5V18.5C38 15.7386 35.7614 13.5 33 13.5Z" fill="#269BB4"/>
<path id="Path 25917" d="M21.2217 31.2793H23.2217L23.2437 30.5093C23.2437 29.4973 23.8817 29.2333 24.7837 28.9473C25.6885 28.6899 26.4849 28.1449 27.0525 27.3947C27.6201 26.6446 27.928 25.73 27.9297 24.7893C27.9495 24.2149 27.8499 23.6427 27.6371 23.1089C27.4244 22.575 27.1031 22.0912 26.6936 21.6879C26.2842 21.2847 25.7954 20.9708 25.2584 20.7662C24.7214 20.5616 24.1477 20.4707 23.5737 20.4993C22.9671 20.4861 22.3642 20.5962 21.8014 20.823C21.2387 21.0498 20.7279 21.3885 20.3 21.8187C19.8721 22.2488 19.536 22.7614 19.3122 23.3253C19.0883 23.8892 18.9813 24.4928 18.9977 25.0993H21.0657C21.0579 24.7644 21.1169 24.4313 21.2395 24.1196C21.362 23.8078 21.5455 23.5236 21.7793 23.2837C22.0131 23.0438 22.2924 22.853 22.6009 22.7224C22.9093 22.5918 23.2408 22.5241 23.5757 22.5233C23.8778 22.5058 24.1801 22.5535 24.4621 22.6632C24.7441 22.7729 24.9992 22.9421 25.21 23.1591C25.4208 23.3762 25.5824 23.6361 25.6838 23.9212C25.7852 24.2063 25.8241 24.5098 25.7977 24.8113C25.7844 25.2992 25.6147 25.7699 25.3137 26.1541C25.0127 26.5383 24.5963 26.8156 24.1257 26.9453L23.3997 27.2333C22.6889 27.4045 22.0684 27.8365 21.6609 28.4436C21.2535 29.0506 21.0889 29.7886 21.1997 30.5113L21.2217 31.2793ZM22.2117 36.0333C22.4076 36.0402 22.6028 36.0079 22.7859 35.9381C22.9691 35.8683 23.1363 35.7625 23.2778 35.6269C23.4194 35.4913 23.5323 35.3288 23.6099 35.1489C23.6875 34.9689 23.7282 34.7752 23.7297 34.5793C23.728 34.3835 23.687 34.19 23.6093 34.0103C23.5316 33.8306 23.4186 33.6683 23.2771 33.533C23.1356 33.3976 22.9685 33.292 22.7855 33.2223C22.6025 33.1526 22.4074 33.1203 22.2117 33.1273C22.0161 33.1203 21.821 33.1526 21.638 33.2223C21.455 33.292 21.2878 33.3976 21.1463 33.533C21.0048 33.6683 20.8919 33.8306 20.8142 34.0103C20.7364 34.19 20.6955 34.3835 20.6937 34.5793C20.6952 34.7752 20.736 34.9689 20.8136 35.1489C20.8912 35.3288 21.0041 35.4913 21.1456 35.6269C21.2871 35.7625 21.4544 35.8683 21.6375 35.9381C21.8206 36.0079 22.0159 36.0402 22.2117 36.0333Z" fill="white"/>
</g>
<g id="Group 26794">
<g id="Group_2" filter="url(#filter1_d_1866_14003)">
<path id="Path 25918" d="M54 53.5H189C190.326 53.5 191.598 54.0268 192.536 54.9645C193.473 55.9021 194 57.1739 194 58.5V83.5C194 84.8261 193.473 86.0979 192.536 87.0355C191.598 87.9732 190.326 88.5 189 88.5H54C52.6739 88.5 51.4021 87.9732 50.4645 87.0355C49.5268 86.0979 49 84.8261 49 83.5V58.5C49 57.1739 49.5268 55.9021 50.4645 54.9645C51.4021 54.0268 52.6739 53.5 54 53.5V53.5Z" fill="white"/>
</g>
<g id="Group 26775_2">
<path id="Rectangle 5617_2" d="M118 61.5H92C90.3431 61.5 89 62.8431 89 64.5C89 66.1569 90.3431 67.5 92 67.5H118C119.657 67.5 121 66.1569 121 64.5C121 62.8431 119.657 61.5 118 61.5Z" fill="#9FE0EA"/>
<path id="Rectangle 5618_2" d="M136 74.5H92C90.3431 74.5 89 75.8431 89 77.5C89 79.1569 90.3431 80.5 92 80.5H136C137.657 80.5 139 79.1569 139 77.5C139 75.8431 137.657 74.5 136 74.5Z" fill="#D6F3F7"/>
</g>
<g id="Group 26791">
<path id="Rectangle 5624_2" d="M76 56.5H57C54.2386 56.5 52 58.7386 52 61.5V80.5C52 83.2614 54.2386 85.5 57 85.5H76C78.7614 85.5 81 83.2614 81 80.5V61.5C81 58.7386 78.7614 56.5 76 56.5Z" fill="#269BB4"/>
<path id="Path 25917_2" d="M64.2217 74.2793H66.2217L66.2437 73.5093C66.2437 72.4973 66.8817 72.2333 67.7837 71.9473C68.6885 71.6899 69.4849 71.1449 70.0525 70.3947C70.6201 69.6446 70.928 68.73 70.9297 67.7893C70.9495 67.2149 70.8499 66.6427 70.6371 66.1089C70.4244 65.575 70.1031 65.0912 69.6936 64.6879C69.2842 64.2847 68.7954 63.9708 68.2584 63.7662C67.7214 63.5616 67.1477 63.4707 66.5737 63.4993C65.9671 63.4861 65.3642 63.5962 64.8014 63.823C64.2387 64.0498 63.7279 64.3885 63.3 64.8187C62.8721 65.2488 62.536 65.7614 62.3122 66.3253C62.0883 66.8892 61.9813 67.4928 61.9977 68.0993H64.0657C64.0579 67.7644 64.1169 67.4313 64.2395 67.1196C64.362 66.8078 64.5455 66.5236 64.7793 66.2837C65.0131 66.0438 65.2924 65.853 65.6009 65.7224C65.9093 65.5918 66.2408 65.5241 66.5757 65.5233C66.8778 65.5058 67.1801 65.5535 67.4621 65.6632C67.7441 65.7729 67.9992 65.9421 68.21 66.1591C68.4208 66.3762 68.5824 66.6361 68.6838 66.9212C68.7852 67.2063 68.8241 67.5098 68.7977 67.8113C68.7844 68.2992 68.6147 68.7699 68.3137 69.1541C68.0127 69.5383 67.5963 69.8156 67.1257 69.9453L66.3997 70.2333C65.6889 70.4045 65.0684 70.8365 64.6609 71.4436C64.2535 72.0506 64.0889 72.7886 64.1997 73.5113L64.2217 74.2793ZM65.2117 79.0333C65.4076 79.0402 65.6028 79.0079 65.7859 78.9381C65.9691 78.8683 66.1363 78.7625 66.2778 78.6269C66.4194 78.4913 66.5323 78.3288 66.6099 78.1489C66.6875 77.9689 66.7282 77.7752 66.7297 77.5793C66.728 77.3835 66.687 77.19 66.6093 77.0103C66.5316 76.8306 66.4186 76.6683 66.2771 76.533C66.1356 76.3976 65.9685 76.292 65.7855 76.2223C65.6025 76.1526 65.4074 76.1203 65.2117 76.1273C65.0161 76.1203 64.821 76.1526 64.638 76.2223C64.455 76.292 64.2878 76.3976 64.1463 76.533C64.0048 76.6683 63.8919 76.8306 63.8142 77.0103C63.7364 77.19 63.6955 77.3835 63.6937 77.5793C63.6952 77.7752 63.736 77.9689 63.8136 78.1489C63.8912 78.3288 64.0041 78.4913 64.1456 78.6269C64.2871 78.7625 64.4544 78.8683 64.6375 78.9381C64.8206 79.0079 65.0159 79.0402 65.2117 79.0333Z" fill="white"/>
</g>
</g>
<g id="Group 26793">
<g id="Group_3" filter="url(#filter2_d_1866_14003)">
<path id="Path 25919" d="M11 96.5H146C147.326 96.5 148.598 97.0268 149.536 97.9645C150.473 98.9021 151 100.174 151 101.5V126.5C151 127.826 150.473 129.098 149.536 130.036C148.598 130.973 147.326 131.5 146 131.5H11C9.67392 131.5 8.40215 130.973 7.46447 130.036C6.52678 129.098 6 127.826 6 126.5V101.5C6 100.174 6.52678 98.9021 7.46447 97.9645C8.40215 97.0268 9.67392 96.5 11 96.5V96.5Z" fill="white"/>
</g>
<g id="Group 26775_3">
<path id="Rectangle 5617_3" d="M75 104.5H49C47.3431 104.5 46 105.843 46 107.5C46 109.157 47.3431 110.5 49 110.5H75C76.6569 110.5 78 109.157 78 107.5C78 105.843 76.6569 104.5 75 104.5Z" fill="#9FE0EA"/>
<path id="Rectangle 5618_3" d="M93 117.5H49C47.3431 117.5 46 118.843 46 120.5C46 122.157 47.3431 123.5 49 123.5H93C94.6569 123.5 96 122.157 96 120.5C96 118.843 94.6569 117.5 93 117.5Z" fill="#D6F3F7"/>
</g>
<g id="Group 26792">
<path id="Rectangle 5624_3" d="M33 99.5H14C11.2386 99.5 9 101.739 9 104.5V123.5C9 126.261 11.2386 128.5 14 128.5H33C35.7614 128.5 38 126.261 38 123.5V104.5C38 101.739 35.7614 99.5 33 99.5Z" fill="#269BB4"/>
<path id="Path 25917_3" d="M21.2217 117.279H23.2217L23.2437 116.509C23.2437 115.497 23.8817 115.233 24.7837 114.947C25.6885 114.69 26.4849 114.145 27.0525 113.395C27.6201 112.645 27.928 111.73 27.9297 110.789C27.9495 110.215 27.8499 109.643 27.6371 109.109C27.4244 108.575 27.1031 108.091 26.6936 107.688C26.2842 107.285 25.7954 106.971 25.2584 106.766C24.7214 106.562 24.1477 106.471 23.5737 106.499C22.9671 106.486 22.3642 106.596 21.8014 106.823C21.2387 107.05 20.7279 107.389 20.3 107.819C19.8721 108.249 19.536 108.761 19.3122 109.325C19.0883 109.889 18.9813 110.493 18.9977 111.099H21.0657C21.0579 110.764 21.1169 110.431 21.2395 110.12C21.362 109.808 21.5455 109.524 21.7793 109.284C22.0131 109.044 22.2924 108.853 22.6009 108.722C22.9093 108.592 23.2408 108.524 23.5757 108.523C23.8778 108.506 24.1801 108.553 24.4621 108.663C24.7441 108.773 24.9992 108.942 25.21 109.159C25.4208 109.376 25.5824 109.636 25.6838 109.921C25.7852 110.206 25.8241 110.51 25.7977 110.811C25.7844 111.299 25.6147 111.77 25.3137 112.154C25.0127 112.538 24.5963 112.816 24.1257 112.945L23.3997 113.233C22.6889 113.405 22.0684 113.836 21.6609 114.444C21.2535 115.051 21.0889 115.789 21.1997 116.511L21.2217 117.279ZM22.2117 122.033C22.4076 122.04 22.6028 122.008 22.7859 121.938C22.9691 121.868 23.1363 121.762 23.2778 121.627C23.4194 121.491 23.5323 121.329 23.6099 121.149C23.6875 120.969 23.7282 120.775 23.7297 120.579C23.728 120.383 23.687 120.19 23.6093 120.01C23.5316 119.831 23.4186 119.668 23.2771 119.533C23.1356 119.398 22.9685 119.292 22.7855 119.222C22.6025 119.153 22.4074 119.12 22.2117 119.127C22.0161 119.12 21.821 119.153 21.638 119.222C21.455 119.292 21.2878 119.398 21.1463 119.533C21.0048 119.668 20.8919 119.831 20.8142 120.01C20.7364 120.19 20.6955 120.383 20.6937 120.579C20.6952 120.775 20.736 120.969 20.8136 121.149C20.8912 121.329 21.0041 121.491 21.1456 121.627C21.2871 121.762 21.4544 121.868 21.6375 121.938C21.8206 122.008 22.0159 122.04 22.2117 122.033Z" fill="white"/>
</g>
</g>
</g>
<defs>
<filter id="filter0_d_1866_14003" x="0" y="7.5" width="157" height="47" filterUnits="userSpaceOnUse" color-interpolation-filters="sRGB">
<feFlood flood-opacity="0" result="BackgroundImageFix"/>
<feColorMatrix in="SourceAlpha" type="matrix" values="0 0 0 0 0 0 0 0 0 0 0 0 0 0 0 0 0 0 127 0" result="hardAlpha"/>
<feOffset dy="3"/>
<feGaussianBlur stdDeviation="3"/>
<feColorMatrix type="matrix" values="0 0 0 0 0.14902 0 0 0 0 0.607843 0 0 0 0 0.705882 0 0 0 0.161 0"/>
<feBlend mode="normal" in2="BackgroundImageFix" result="effect1_dropShadow_1866_14003"/>
<feBlend mode="normal" in="SourceGraphic" in2="effect1_dropShadow_1866_14003" result="shape"/>
</filter>
<filter id="filter1_d_1866_14003" x="43" y="50.5" width="157" height="47" filterUnits="userSpaceOnUse" color-interpolation-filters="sRGB">
<feFlood flood-opacity="0" result="BackgroundImageFix"/>
<feColorMatrix in="SourceAlpha" type="matrix" values="0 0 0 0 0 0 0 0 0 0 0 0 0 0 0 0 0 0 127 0" result="hardAlpha"/>
<feOffset dy="3"/>
<feGaussianBlur stdDeviation="3"/>
<feColorMatrix type="matrix" values="0 0 0 0 0.14902 0 0 0 0 0.607843 0 0 0 0 0.705882 0 0 0 0.161 0"/>
<feBlend mode="normal" in2="BackgroundImageFix" result="effect1_dropShadow_1866_14003"/>
<feBlend mode="normal" in="SourceGraphic" in2="effect1_dropShadow_1866_14003" result="shape"/>
</filter>
<filter id="filter2_d_1866_14003" x="0" y="93.5" width="157" height="47" filterUnits="userSpaceOnUse" color-interpolation-filters="sRGB">
<feFlood flood-opacity="0" result="BackgroundImageFix"/>
<feColorMatrix in="SourceAlpha" type="matrix" values="0 0 0 0 0 0 0 0 0 0 0 0 0 0 0 0 0 0 127 0" result="hardAlpha"/>
<feOffset dy="3"/>
<feGaussianBlur stdDeviation="3"/>
<feColorMatrix type="matrix" values="0 0 0 0 0.14902 0 0 0 0 0.607843 0 0 0 0 0.705882 0 0 0 0.161 0"/>
<feBlend mode="normal" in2="BackgroundImageFix" result="effect1_dropShadow_1866_14003"/>
<feBlend mode="normal" in="SourceGraphic" in2="effect1_dropShadow_1866_14003" result="shape"/>
</filter>
</defs>
</svg>
